<?xml version="1.0" encoding="UTF-8"?>
<svg xmlns="http://www.w3.org/2000/svg" width="28" height="28" viewBox="0 0 28 28" fill="none">
  <path d="M15.0622 11.8398C15.0438 11.9331 15.0595 12.0299 15.1064 12.1126C15.1532 12.1953 15.2282 12.2585 15.3176 12.2908C15.8215 12.4824 16.3549 12.5851 16.894 12.5941C19.0618 12.6691 20.0269 10.3527 20.1225 9.55694C20.1382 9.46647 20.1222 9.37335 20.0771 9.29336C20.032 9.21337 19.9607 9.15143 19.8751 9.11803C18.2254 8.49213 15.5913 8.78277 15.0622 11.8398Z" fill="white"></path>
  <path d="M11.0977 13.7999C11.6368 13.7909 12.1702 13.6883 12.6741 13.4966C12.7635 13.4643 12.8385 13.4011 12.8853 13.3184C12.9322 13.2357 12.9479 13.1389 12.9295 13.0456C12.4004 9.98856 9.76628 9.69795 8.11655 10.3238C8.03102 10.3573 7.95967 10.4192 7.91458 10.4992C7.8695 10.5792 7.85344 10.6723 7.86915 10.7628C7.96482 11.5585 8.92984 13.8749 11.0977 13.7999Z" fill="white"></path>
  <path d="M22.0753 17.0171L21.6525 15.1104C21.6107 14.9223 21.5056 14.7543 21.3548 14.6342C21.204 14.5142 21.0167 14.4495 20.824 14.4509H14.4235C14.4231 13.9644 14.4237 9.87372 14.4235 9.2807C15.3483 9.17563 16.2022 8.73421 16.8227 8.04042C17.4432 7.34664 17.787 6.44894 17.7886 5.51816C17.5822 0.497187 10.4222 0.490699 10.2128 5.51819C10.2144 6.44896 10.5582 7.34666 11.1787 8.04044C11.7992 8.73421 12.6531 9.17563 13.578 9.28069C13.5776 9.89752 13.5782 13.9444 13.578 14.451H7.17746C6.98476 14.4495 6.79739 14.5142 6.64661 14.6343C6.49583 14.7543 6.39076 14.9224 6.3489 15.1105L5.92614 17.0171C5.89889 17.1407 5.89965 17.2689 5.92835 17.3922C5.95704 17.5155 6.01296 17.6308 6.09199 17.7297C6.17102 17.8286 6.27117 17.9086 6.38511 17.9637C6.49905 18.0189 6.62389 18.0479 6.75048 18.0486H21.2509C21.3775 18.0479 21.5024 18.0189 21.6163 17.9637C21.7303 17.9086 21.8304 17.8286 21.9095 17.7297C21.9885 17.6308 22.0444 17.5155 22.0731 17.3922C22.1018 17.2689 22.1025 17.1407 22.0753 17.0171ZM14.0007 7.63193C13.6514 7.6213 13.5361 7.32656 13.5695 7.01896C13.3643 6.94273 13.1843 6.81101 13.0495 6.63848C12.9823 6.54911 12.9527 6.43695 12.9672 6.32604C12.9817 6.21514 13.039 6.11432 13.127 6.0452C13.2149 5.97608 13.3264 5.94416 13.4376 5.95628C13.5488 5.96841 13.6508 6.02361 13.7217 6.11005C13.7551 6.15214 13.7975 6.18616 13.8458 6.20958C13.8941 6.233 13.947 6.24521 14.0007 6.2453C14.0938 6.2445 14.1828 6.20695 14.2483 6.14084C14.3139 6.07472 14.3507 5.9854 14.3507 5.89231C14.3506 5.79921 14.3139 5.70989 14.2483 5.64378C14.1828 5.57767 14.0938 5.54013 14.0007 5.53933C13.7199 5.53709 13.4487 5.43716 13.2336 5.25671C13.0186 5.07626 12.873 4.82655 12.822 4.55047C12.771 4.27438 12.8177 3.98915 12.9541 3.74376C13.0905 3.49837 13.3081 3.30813 13.5695 3.20571C13.5503 2.95289 13.5833 2.66973 13.8612 2.58428C13.9254 2.56219 13.9939 2.55569 14.0611 2.56533C14.1282 2.57497 14.1921 2.60047 14.2475 2.63972C14.3029 2.67896 14.3481 2.73083 14.3794 2.79102C14.4108 2.85122 14.4273 2.91801 14.4277 2.98587V3.19726C14.6136 3.26687 14.7792 3.38166 14.9097 3.53126C14.9822 3.61683 15.0183 3.72746 15.0102 3.83937C15.0021 3.95128 14.9504 4.05553 14.8662 4.12973C14.782 4.20392 14.6721 4.24214 14.5601 4.23615C14.448 4.23017 14.3428 4.18047 14.267 4.09773C14.2283 4.05373 14.1792 4.02012 14.1241 3.99996C14.0691 3.9798 14.0099 3.97373 13.9519 3.9823C13.8939 3.99087 13.839 4.01381 13.7922 4.04904C13.7453 4.08426 13.708 4.13064 13.6837 4.18397C13.6594 4.23729 13.6488 4.29585 13.6528 4.35432C13.6569 4.41279 13.6756 4.46931 13.7071 4.51872C13.7386 4.56814 13.782 4.60889 13.8333 4.63726C13.8846 4.66563 13.9421 4.68071 14.0007 4.68114C14.282 4.68373 14.5536 4.78424 14.7688 4.96538C14.984 5.14653 15.1294 5.39699 15.1799 5.67371C15.2304 5.95042 15.183 6.23609 15.0457 6.48161C14.9084 6.72712 14.6899 6.91713 14.4277 7.01897C14.4607 7.3218 14.3487 7.62376 14.0007 7.63193Z" fill="white"></path>
  <path d="M8.57048 25.2058C8.6231 25.4983 8.77678 25.7631 9.0047 25.954C9.23263 26.1448 9.52033 26.2496 9.81761 26.25H18.1797C18.4769 26.2496 18.7646 26.1448 18.9926 25.954C19.2205 25.7631 19.3742 25.4983 19.4268 25.2058L20.5598 18.894H7.4375L8.57048 25.2058ZM10.4052 21.067L10.8787 23.7134H12.4514C12.5625 23.7149 12.6685 23.7601 12.7466 23.8393C12.8246 23.9184 12.8684 24.025 12.8684 24.1362C12.8684 24.2473 12.8246 24.354 12.7466 24.4331C12.6685 24.5122 12.5625 24.5574 12.4514 24.5589H10.5278C10.4286 24.5589 10.3326 24.5242 10.2562 24.4609C10.1798 24.3977 10.1278 24.3097 10.1093 24.2123L9.57242 21.2192C9.55349 21.1093 9.5787 20.9964 9.64257 20.9049C9.70643 20.8135 9.8038 20.751 9.91351 20.7309C10.0232 20.7109 10.1364 20.7349 10.2285 20.7979C10.3205 20.8608 10.3841 20.9575 10.4052 21.067Z" fill="white"></path>
</svg>
