<?xml version="1.0" encoding="UTF-8"?>
<svg xmlns="http://www.w3.org/2000/svg" width="28" height="28" viewBox="0 0 28 28" fill="none">
  <path fill-rule="evenodd" clip-rule="evenodd" d="M8.99043 13.9802C9.07433 16.5779 11.2073 18.6584 13.8256 18.6584C16.4439 18.6584 18.5763 16.5779 18.6607 13.9802C18.6622 13.9369 18.6473 13.8988 18.6175 13.8679C18.5871 13.8365 18.55 13.8211 18.5063 13.8211H9.14536C9.10212 13.8211 9.06455 13.8371 9.03418 13.8679C9.00381 13.8993 8.9894 13.9369 8.99095 13.9802H8.99043ZM14.7263 2.37121C14.7263 1.87245 14.3228 1.47046 13.8256 1.47046C13.3284 1.47046 12.9248 1.874 12.9248 2.37121C12.9248 2.77939 13.1961 3.12373 13.5682 3.2344V13.3064H14.0829V3.2344C14.4535 3.12373 14.7263 2.7799 14.7263 2.37121ZM21.2692 6.05917C21.2692 5.5604 20.8657 5.15841 20.3685 5.15841C19.9603 5.15841 19.616 5.42967 19.5053 5.80181H17.3055C17.1634 5.80181 17.0481 5.9171 17.0481 6.05917V13.3064H17.5628V6.31652H19.5053C19.616 6.68866 19.9608 6.95992 20.3685 6.95992C20.8631 6.95992 21.2692 6.55793 21.2692 6.05917ZM6.38191 6.05917C6.38191 5.5604 6.78544 5.15841 7.28264 5.15841C7.6908 5.15841 8.03514 5.42967 8.1458 5.80181H10.3456C10.4877 5.80181 10.603 5.9171 10.603 6.05917V13.3064H10.0883V6.31652H8.1458C8.03514 6.68866 7.69029 6.95992 7.28264 6.95992C6.78801 6.95992 6.38191 6.55793 6.38191 6.05917ZM26.1785 10.1769C26.1785 9.67814 25.775 9.27615 25.2777 9.27615C24.8696 9.27615 24.5252 9.5474 24.4146 9.91955H22.2147C22.0727 9.91955 21.9574 10.0348 21.9574 10.1769V13.3064H22.4721V10.4343H24.4146C24.5252 10.8064 24.8701 11.0777 25.2777 11.0777C25.7724 11.0777 26.1785 10.6757 26.1785 10.1769ZM1.47266 10.1769C1.47266 9.67814 1.87618 9.27615 2.37339 9.27615C2.78155 9.27615 3.12589 9.5474 3.23655 9.91955H5.4364C5.57845 9.91955 5.69375 10.0348 5.69375 10.1769V13.3064H5.17904V10.4343H3.23655C3.12589 10.8064 2.78104 11.0777 2.37339 11.0777C1.87876 11.0777 1.47266 10.6757 1.47266 10.1769ZM13.8256 20.0811C17.2324 20.0811 20.0036 17.3598 20.0833 13.9719C20.0854 13.888 20.1539 13.8211 20.2378 13.8211H25.9211C26.0663 13.8211 26.1816 13.939 26.1785 14.0841C26.1713 14.4285 26.1497 14.7692 26.1147 15.1064C26.0477 15.7498 25.548 16.2444 24.9041 16.3041L23.118 16.4698C22.1442 16.5604 21.6758 17.7036 22.3064 18.4515L23.4624 19.8217C23.8793 20.3163 23.8891 21.0189 23.4855 21.5244C22.9291 22.2213 22.2986 22.857 21.6064 23.419C21.104 23.8267 20.4009 23.8231 19.9032 23.4098L18.5233 22.2645C17.7703 21.6397 16.6312 22.1173 16.5484 23.0917L16.3965 24.8793C16.342 25.5242 15.8509 26.0281 15.2075 26.0997C14.3228 26.1985 13.4256 26.2016 12.5403 26.11C11.897 26.0431 11.4023 25.5433 11.3426 24.8994L11.1769 23.1133C11.0863 22.1395 9.94315 21.6711 9.19528 22.3016L7.82514 23.4576C7.33051 23.8746 6.62794 23.8843 6.1225 23.4808C5.42559 22.9244 4.78993 22.2939 4.22787 21.6016C3.82022 21.0992 3.82383 20.3961 4.23713 19.8984L5.38235 18.5184C6.0072 17.7654 5.52956 16.6263 4.55522 16.5434L2.76765 16.3916C2.12273 16.337 1.61883 15.846 1.54729 15.2026C1.50611 14.8341 1.48141 14.4604 1.47369 14.0826C1.4706 13.9374 1.58589 13.8196 1.73104 13.8196H7.41441C7.4983 13.8196 7.56676 13.8865 7.56882 13.9704C7.64911 17.3582 10.4203 20.0796 13.8266 20.0796L13.8256 20.0811Z" fill="white"></path>
</svg>
