<?xml version="1.0" encoding="UTF-8"?>
<svg xmlns="http://www.w3.org/2000/svg" width="28" height="28" viewBox="0 0 28 28" fill="none">
  <g clip-path="url(#clip0_474_92)">
    <path d="M23.1863 19.25C22.2932 19.2494 21.4267 19.5537 20.7302 20.1127L18.0059 17.3884C18.7527 16.5054 19.1856 15.3995 19.2366 14.2441L24.5933 14.0437C24.7061 14.3336 24.9178 14.5742 25.1908 14.723C25.4639 14.8718 25.7808 14.9192 26.0855 14.8569C26.3902 14.7946 26.663 14.6265 26.8557 14.3824C27.0484 14.1383 27.1485 13.8339 27.1384 13.5231C27.1283 13.2122 27.0086 12.915 26.8005 12.6839C26.5923 12.4529 26.3092 12.3029 26.0011 12.2604C25.693 12.218 25.3799 12.2859 25.117 12.4522C24.8542 12.6184 24.6586 12.8722 24.5649 13.1687L19.2073 13.3669C19.1166 12.6137 18.8637 11.8892 18.4658 11.2432C18.068 10.5973 17.5348 10.0453 16.903 9.62544L18.1665 7.32769C18.6862 7.48968 19.2476 7.45284 19.7418 7.22431C20.2359 6.99579 20.6276 6.59187 20.8408 6.09091C21.054 5.58996 21.0735 5.02767 20.8956 4.51313C20.7176 3.9986 20.3549 3.56849 19.8778 3.30624C19.4007 3.04399 18.8432 2.9683 18.3135 3.09385C17.7837 3.2194 17.3195 3.53724 17.0108 3.98572C16.7021 4.43419 16.571 4.98133 16.6429 5.52099C16.7148 6.06065 16.9846 6.55437 17.4 6.90637L16.1356 9.20544C15.2342 8.80168 14.237 8.66137 13.2592 8.80073C12.2814 8.94009 11.3631 9.35343 10.6104 9.99294L7.88608 7.26819C8.51521 6.48093 8.81902 5.48265 8.73508 4.47839C8.65115 3.47413 8.18586 2.54013 7.43478 1.86823C6.68369 1.19633 5.70383 0.837532 4.69646 0.865538C3.68909 0.893544 2.73068 1.30623 2.01809 2.01882C1.30549 2.73141 0.892811 3.68982 0.864806 4.6972C0.8368 5.70457 1.1956 6.68442 1.8675 7.43551C2.5394 8.18659 3.4734 8.65189 4.47766 8.73582C5.48192 8.81975 6.4802 8.51595 7.26745 7.88681L9.99177 10.6116C9.1882 11.5576 8.74759 12.7588 8.74883 14C8.7501 14.3142 8.77938 14.6277 8.83633 14.9367L4.13889 16.2015C3.927 15.8365 3.58956 15.5611 3.18953 15.4266C2.78951 15.2922 2.35422 15.3078 1.96489 15.4707C1.57556 15.6336 1.25878 15.9325 1.07365 16.3118C0.88853 16.691 0.847705 17.1247 0.958799 17.5318C1.06989 17.9389 1.32532 18.2917 1.67741 18.5244C2.02951 18.7571 2.45422 18.8537 2.87232 18.7962C3.29041 18.7388 3.67332 18.5312 3.94961 18.2122C4.22589 17.8931 4.37668 17.4845 4.37383 17.0625C4.37383 17.0564 4.37383 17.0511 4.37383 17.045L9.06733 15.7815C9.47424 16.9051 10.2518 17.8566 11.2719 18.4791L9.95414 21.1142C9.32163 20.9183 8.63861 20.9673 8.04053 21.2514C7.44245 21.5356 6.97297 22.0341 6.7252 22.6481C6.47743 23.2621 6.46945 23.9469 6.70286 24.5665C6.93626 25.1861 7.394 25.6954 7.98531 25.9934C8.57661 26.2914 9.2583 26.3563 9.8952 26.1752C10.5321 25.9941 11.0777 25.5803 11.4238 25.0158C11.7699 24.4513 11.8913 23.7774 11.7638 23.1276C11.6363 22.4779 11.2693 21.8998 10.7355 21.5079L12.0533 18.8729C12.9374 19.2283 13.9019 19.3355 14.8425 19.1829C15.7832 19.0304 16.6643 18.6238 17.3908 18.0071L20.1151 20.7314C19.5585 21.4288 19.2552 22.2947 19.2551 23.187C19.255 24.0794 19.558 24.9453 20.1145 25.6429C20.6709 26.3405 21.4478 26.8284 22.3179 27.0266C23.1879 27.2248 24.0995 27.1217 24.9032 26.734C25.707 26.3463 26.3552 25.6972 26.7417 24.8928C27.1282 24.0885 27.23 23.1768 27.0304 22.3071C26.8309 21.4373 26.3419 20.6611 25.6435 20.1057C24.945 19.5503 24.0787 19.2486 23.1863 19.25ZM6.99883 7H2.62383C2.62383 6.41984 2.8543 5.86344 3.26453 5.4532C3.67477 5.04297 4.23117 4.8125 4.81133 4.8125C4.55174 4.8125 4.29798 4.73552 4.08214 4.5913C3.8663 4.44708 3.69808 4.2421 3.59874 4.00227C3.4994 3.76244 3.4734 3.49854 3.52405 3.24394C3.57469 2.98934 3.69969 2.75548 3.88325 2.57192C4.06681 2.38836 4.30067 2.26336 4.55527 2.21272C4.80987 2.16208 5.07377 2.18807 5.3136 2.28741C5.55343 2.38675 5.75841 2.55497 5.90263 2.77081C6.04685 2.98665 6.12383 3.24041 6.12383 3.5C6.12383 3.8481 5.98555 4.18194 5.73941 4.42808C5.49327 4.67422 5.15943 4.8125 4.81133 4.8125C5.39149 4.8125 5.94789 5.04297 6.35812 5.4532C6.76836 5.86344 6.99883 6.41984 6.99883 7ZM13.9988 10.5C14.3449 10.5 14.6833 10.6026 14.9711 10.7949C15.2589 10.9872 15.4832 11.2605 15.6156 11.5803C15.7481 11.9001 15.7827 12.2519 15.7152 12.5914C15.6477 12.9309 15.481 13.2427 15.2363 13.4874C14.9915 13.7322 14.6797 13.8988 14.3402 13.9664C14.0008 14.0339 13.6489 13.9992 13.3291 13.8668C13.0094 13.7343 12.736 13.51 12.5438 13.2222C12.3515 12.9345 12.2488 12.5961 12.2488 12.25C12.2488 11.7859 12.4332 11.3408 12.7614 11.0126C13.0896 10.6844 13.5347 10.5 13.9988 10.5ZM11.3738 17.0625C11.3738 16.3663 11.6504 15.6986 12.1427 15.2063C12.635 14.7141 13.3026 14.4375 13.9988 14.4375C14.695 14.4375 15.3627 14.7141 15.855 15.2063C16.3473 15.6986 16.6238 16.3663 16.6238 17.0625H11.3738ZM20.9988 25.375C20.9988 24.7948 21.2293 24.2384 21.6395 23.8282C22.0498 23.418 22.6062 23.1875 23.1863 23.1875C22.9267 23.1875 22.673 23.1105 22.4571 22.9663C22.2413 22.8221 22.0731 22.6171 21.9737 22.3773C21.8744 22.1374 21.8484 21.8735 21.899 21.6189C21.9497 21.3643 22.0747 21.1305 22.2583 20.9469C22.4418 20.7634 22.6757 20.6384 22.9303 20.5877C23.1849 20.5371 23.4488 20.5631 23.6886 20.6624C23.9284 20.7617 24.1334 20.93 24.2776 21.1458C24.4219 21.3617 24.4988 21.6154 24.4988 21.875C24.4988 22.2231 24.3605 22.5569 24.1144 22.8031C23.8683 23.0492 23.5344 23.1875 23.1863 23.1875C23.7665 23.1875 24.3229 23.418 24.7331 23.8282C25.1434 24.2384 25.3738 24.7948 25.3738 25.375H20.9988Z" fill="white"></path>
  </g>
  <defs>
    <clipPath id="clip0_474_92">
      <rect width="28" height="28" fill="white"></rect>
    </clipPath>
  </defs>
</svg>
