<?xml version="1.0" encoding="UTF-8"?>
<svg xmlns="http://www.w3.org/2000/svg" width="28" height="28" viewBox="0 0 28 28" fill="none">
  <path d="M17.2793 22.6133C17.2793 22.8977 17.1754 23.1602 16.9949 23.357H7.32617C6.68632 22.668 7.21679 21.4648 8.16835 21.4867H16.1527C16.7762 21.4867 17.2793 21.9898 17.2793 22.6133ZM7.32617 24.1172C6.68632 24.8062 7.21679 26.0094 8.16835 25.9875H16.1527C17.1043 26.0094 17.6348 24.8008 16.9894 24.1172H7.32617ZM10.5035 27.9453H13.823C14.534 27.9453 15.1191 27.4258 15.234 26.7477H9.09257C9.20742 27.4258 9.79257 27.9453 10.5035 27.9453ZM17.684 16.7453C16.5137 17.7625 15.7973 19.1953 15.6496 20.7266H13.2269V5.41406C13.2269 5.09141 13.5004 4.83437 13.823 4.86172C19.8059 5.39219 22.141 12.9008 17.684 16.7453ZM18.7449 11.6266C18.7613 9.32969 17.2519 7.175 15.0754 6.42578C14.8512 6.34375 14.5941 6.46406 14.5176 6.69375C14.4355 6.92344 14.5504 7.16953 14.7801 7.25156C16.6066 7.88047 17.8809 9.69063 17.8644 11.6266C17.8754 12.2008 18.7394 12.2008 18.7449 11.6266ZM7.61601 18.1234C7.90038 17.8281 8.5457 17.4453 8.78632 17.9867C8.87382 18.2109 8.75898 18.468 8.52929 18.5555C7.54492 19.0039 8.05351 20.3328 8.66601 20.7266H10.6293C11.0504 20.4203 11.3238 19.9281 11.3238 19.3703V6.97266C11.3129 5.18437 8.86289 4.65938 8.13007 6.28359C8.7207 6.39844 10.4652 7.88594 9.21288 8.16484C8.79726 8.14844 8.70429 7.59609 8.37617 7.41016C6.73007 6.10859 4.38945 7.89141 5.10038 9.78906C5.84414 9.65234 6.82304 10.0188 7.3207 10.6477C7.56679 10.9156 7.34257 11.3805 6.9871 11.3695C6.86132 11.3695 6.74101 11.3148 6.65351 11.2109C6.53867 11.0742 6.28164 10.8227 5.87695 10.7078C5.59257 10.6148 5.19882 10.6367 4.96914 10.7133C2.6996 11.375 2.51367 14.6016 4.67929 15.5258C4.9746 15.05 6.70273 13.732 7.01445 14.6562C7.0746 14.8914 6.92695 15.132 6.69726 15.1867C4.20351 15.8047 4.54804 19.3047 7.11835 19.3758C7.12382 18.9492 7.26054 18.4789 7.61601 18.1234ZM19.1168 6.23984C19.2316 6.23984 19.341 6.19609 19.4285 6.11406L21.4574 4.08516C21.8566 3.66953 21.2496 3.0625 20.8394 3.46719L18.8105 5.49609C18.5262 5.75313 18.7394 6.25078 19.1168 6.23984ZM24.4215 11.2492H21.5559C20.9762 11.2602 20.9816 12.1187 21.5559 12.1242H24.4215C25.0012 12.1187 24.9957 11.2602 24.4215 11.2492ZM19.423 17.2703C19.0074 16.8711 18.4004 17.4781 18.8051 17.8883L20.834 19.9172C21.2441 20.3219 21.8566 19.7039 21.452 19.2992C21.452 19.2937 19.423 17.2703 19.423 17.2703ZM13.2269 3.80078C13.4676 3.80078 13.6644 3.60391 13.6644 3.36328V0.492188C13.6644 0.251562 13.4676 0.0546875 13.2269 0.0546875C12.9863 0.0546875 12.7894 0.251562 12.7894 0.492188V3.35781C12.7894 3.60391 12.9863 3.80078 13.2269 3.80078Z" fill="white"></path>
</svg>
