<?xml version="1.0" encoding="UTF-8"?>
<svg xmlns="http://www.w3.org/2000/svg" width="16" height="16" viewBox="0 0 16 16" fill="none">
  <g clip-path="url(#clip0_474_121)">
    <path d="M7.99991 6.47656C6.10252 6.47656 4.36694 7.44148 3.35756 9.05736C3.11315 9.44887 3.23218 9.96443 3.62369 10.2092C4.01488 10.4532 4.53077 10.3346 4.77551 9.9427C5.47729 8.81897 6.68294 8.14828 7.99991 8.14828C9.31689 8.14828 10.5222 8.81897 11.2243 9.9427C11.3828 10.1968 11.6553 10.3362 11.9338 10.3362C12.0853 10.3362 12.238 10.2951 12.3758 10.2092C12.7673 9.96477 12.8863 9.44921 12.6419 9.05736C11.6329 7.44148 9.89765 6.47656 7.99991 6.47656Z" fill="#9FF565"></path>
    <path d="M15.8733 7.04454C14.1645 4.30728 11.2213 2.67334 8.00021 2.67334C4.77914 2.67334 1.83625 4.30728 0.127088 7.04454C-0.117317 7.43606 0.00170965 7.95162 0.393226 8.19602C0.785076 8.44009 1.30063 8.3214 1.54504 7.92989C2.94661 5.6851 5.3599 4.34506 8.00021 4.34506C10.6405 4.34506 13.0538 5.6851 14.4554 7.92989C14.6139 8.18365 14.8863 8.32307 15.1648 8.32307C15.316 8.32307 15.4691 8.28228 15.6069 8.19602C15.9987 7.95128 16.1177 7.43606 15.8733 7.04454Z" fill="#9FF565"></path>
    <path d="M8.00061 13.3264C8.76027 13.3264 9.3761 12.7106 9.3761 11.9509C9.3761 11.1913 8.76027 10.5754 8.00061 10.5754C7.24095 10.5754 6.62512 11.1913 6.62512 11.9509C6.62512 12.7106 7.24095 13.3264 8.00061 13.3264Z" fill="#9FF565"></path>
  </g>
  <defs>
    <clipPath id="clip0_474_121">
      <rect width="16" height="16" fill="white"></rect>
    </clipPath>
  </defs>
</svg>
